<svg width="103" height="103" viewBox="0 0 103 103" fill="none" xmlns="http://www.w3.org/2000/svg">
<g clip-path="url(#clip0_938_23063)">
<path d="M41.6433 15.5884H47.6785V21.6235H41.6433V15.5884Z" fill="url(#paint0_linear_938_23063)"/>
<path d="M48.4824 45.291H54.5176V51.3262H48.4824V45.291Z" fill="url(#paint1_linear_938_23063)"/>
<path d="M16.8984 58.7695H22.9336V64.8047H16.8984V58.7695Z" fill="url(#paint2_linear_938_23063)"/>
<path d="M62.1621 79.3091H68.1973V85.3442H62.1621V79.3091Z" fill="url(#paint3_linear_938_23063)"/>
<path d="M74.4329 39.2559H80.468V45.291H74.4329V39.2559Z" fill="url(#paint4_linear_938_23063)"/>
<path d="M39.0847 39.803C39.0847 34.2731 34.5859 29.7734 29.0552 29.7734C23.5246 29.7734 19.0249 34.2731 19.0249 39.803C19.0249 45.3336 23.5246 49.8333 29.0552 49.8333C34.5859 49.8333 39.0847 45.3336 39.0847 39.803ZM29.0552 43.7981C26.8525 43.7981 25.0601 42.0064 25.0601 39.8037C25.0601 37.6011 26.8525 35.8086 29.0552 35.8086C31.2579 35.8086 33.0496 37.6003 33.0496 39.803C33.0496 42.0056 31.2579 43.7981 29.0552 43.7981Z" fill="url(#paint5_linear_938_23063)"/>
<path d="M77.4504 51.7578C71.9205 51.7578 67.4209 56.2567 67.4209 61.7873C67.4209 67.318 71.9205 71.8168 77.4504 71.8168C82.9811 71.8168 87.4807 67.318 87.4807 61.7873C87.4807 56.2567 82.9811 51.7578 77.4504 51.7578ZM77.4504 65.7825C75.2477 65.7825 73.4561 63.99 73.4561 61.7873C73.4561 59.5847 75.2477 57.793 77.4504 57.793C79.6531 57.793 81.4456 59.5847 81.4456 61.7873C81.4456 63.99 79.6531 65.7825 77.4504 65.7825Z" fill="url(#paint6_linear_938_23063)"/>
<path d="M41.6434 62.791C36.1135 62.791 31.6139 67.2907 31.6139 72.8213C31.6139 78.3512 36.1135 82.8508 41.6434 82.8508C47.1741 82.8508 51.6737 78.3512 51.6737 72.8213C51.6737 67.2907 47.1741 62.791 41.6434 62.791ZM41.6434 76.8157C39.4407 76.8157 37.649 75.024 37.649 72.8213C37.649 70.6186 39.4407 68.827 41.6434 68.827C43.8461 68.827 45.6386 70.6186 45.6386 72.8213C45.6386 75.024 43.8461 76.8157 41.6434 76.8157Z" fill="url(#paint7_linear_938_23063)"/>
<path d="M102.897 48.2781L102.77 46.2192L100.805 45.5906C95.5928 43.9223 92.3685 38.5912 93.3037 33.191L93.9944 29.2021L89.9757 29.6791C88.7184 29.8284 87.4422 29.7852 86.1849 29.551C79.591 28.322 75.1283 22.1588 76.0241 15.5185L76.6473 10.9041L72.1806 12.2204C71.0805 12.5442 69.9434 12.7092 68.8008 12.7092C62.9699 12.7092 57.8998 8.37142 57.0079 2.61995L56.6322 0.194885L54.1812 0.0691528C53.2901 0.022789 52.388 0 51.5 0C37.7441 0 24.8109 5.35699 15.084 15.084C5.35699 24.8109 0 37.7441 0 51.5C0 65.2559 5.35699 78.1891 15.084 87.916C24.8109 97.643 37.7441 103 51.5 103C65.2559 103 78.1891 97.643 87.916 87.916C97.643 78.1891 103 65.2559 103 51.5C103 50.4556 102.966 49.4011 102.897 48.2781ZM51.5 96.9648C26.4305 96.9648 6.03516 76.5695 6.03516 51.5C6.03516 26.4305 26.4305 6.03516 51.5 6.03516H51.6155C52.6002 9.24762 54.4791 12.1473 57.0534 14.3728C60.3146 17.1923 64.4858 18.7443 68.8008 18.7443C69.1788 18.7443 69.5567 18.7326 69.9339 18.7082C70.5925 26.9115 76.663 33.9155 85.0792 35.484C85.7574 35.6106 86.4395 35.6986 87.1231 35.7497C87.384 42.0661 91.1725 47.8443 96.9538 50.5499C96.9609 50.869 96.9648 51.1857 96.9648 51.5C96.9648 76.5695 76.5695 96.9648 51.5 96.9648Z" fill="url(#paint8_linear_938_23063)"/>
</g>
<defs>
<linearGradient id="paint0_linear_938_23063" x1="47.6785" y1="21.6235" x2="41.2779" y2="21.2073" gradientUnits="userSpaceOnUse">
<stop stop-color="#FC4B2C"/>
<stop offset="1" stop-color="#FFB60E"/>
</linearGradient>
<linearGradient id="paint1_linear_938_23063" x1="54.5176" y1="51.3262" x2="48.117" y2="50.91" gradientUnits="userSpaceOnUse">
<stop stop-color="#FC4B2C"/>
<stop offset="1" stop-color="#FFB60E"/>
</linearGradient>
<linearGradient id="paint2_linear_938_23063" x1="22.9336" y1="64.8047" x2="16.5331" y2="64.3885" gradientUnits="userSpaceOnUse">
<stop stop-color="#FC4B2C"/>
<stop offset="1" stop-color="#FFB60E"/>
</linearGradient>
<linearGradient id="paint3_linear_938_23063" x1="68.1973" y1="85.3442" x2="61.7967" y2="84.928" gradientUnits="userSpaceOnUse">
<stop stop-color="#FC4B2C"/>
<stop offset="1" stop-color="#FFB60E"/>
</linearGradient>
<linearGradient id="paint4_linear_938_23063" x1="80.468" y1="45.291" x2="74.0675" y2="44.8748" gradientUnits="userSpaceOnUse">
<stop stop-color="#FC4B2C"/>
<stop offset="1" stop-color="#FFB60E"/>
</linearGradient>
<linearGradient id="paint5_linear_938_23063" x1="39.0847" y1="49.8333" x2="17.8105" y2="48.4499" gradientUnits="userSpaceOnUse">
<stop stop-color="#FC4B2C"/>
<stop offset="1" stop-color="#FFB60E"/>
</linearGradient>
<linearGradient id="paint6_linear_938_23063" x1="87.4807" y1="71.8168" x2="66.2065" y2="70.4334" gradientUnits="userSpaceOnUse">
<stop stop-color="#FC4B2C"/>
<stop offset="1" stop-color="#FFB60E"/>
</linearGradient>
<linearGradient id="paint7_linear_938_23063" x1="51.6737" y1="82.8508" x2="30.3995" y2="81.4675" gradientUnits="userSpaceOnUse">
<stop stop-color="#FC4B2C"/>
<stop offset="1" stop-color="#FFB60E"/>
</linearGradient>
<linearGradient id="paint8_linear_938_23063" x1="103" y1="103" x2="-6.2357" y2="95.8969" gradientUnits="userSpaceOnUse">
<stop stop-color="#FC4B2C"/>
<stop offset="1" stop-color="#FFB60E"/>
</linearGradient>
<clipPath id="clip0_938_23063">
<rect width="103" height="103" fill="white"/>
</clipPath>
</defs>
</svg>
