<svg width="32" height="32" viewBox="0 0 32 32" fill="none" xmlns="http://www.w3.org/2000/svg">
<g clip-path="url(#clip0_2680_1317)">
<path d="M16.0071 7.67126C11.4643 7.67126 7.79998 11.3355 7.79998 15.8784C7.79998 20.4213 11.4643 24.0855 16.0071 24.0855C20.55 24.0855 24.2143 20.4213 24.2143 15.8784C24.2143 11.3355 20.55 7.67126 16.0071 7.67126ZM16.0071 21.2141C13.0714 21.2141 10.6714 18.8213 10.6714 15.8784C10.6714 12.9355 13.0643 10.5427 16.0071 10.5427C18.95 10.5427 21.3428 12.9355 21.3428 15.8784C21.3428 18.8213 18.9428 21.2141 16.0071 21.2141V21.2141ZM26.4643 7.33555C26.4643 8.39983 25.6071 9.24983 24.55 9.24983C23.4857 9.24983 22.6357 8.39269 22.6357 7.33555C22.6357 6.2784 23.4928 5.42126 24.55 5.42126C25.6071 5.42126 26.4643 6.2784 26.4643 7.33555ZM31.9 9.2784C31.7786 6.71412 31.1928 4.44269 29.3143 2.57126C27.4428 0.699832 25.1714 0.114118 22.6071 -0.0144531C19.9643 -0.164453 12.0428 -0.164453 9.39998 -0.0144531C6.84284 0.106975 4.57141 0.69269 2.69284 2.56412C0.814272 4.43555 0.2357 6.70698 0.107129 9.27126C-0.0428711 11.9141 -0.0428711 19.8355 0.107129 22.4784C0.228557 25.0427 0.814272 27.3141 2.69284 29.1855C4.57141 31.057 6.8357 31.6427 9.39998 31.7713C12.0428 31.9213 19.9643 31.9213 22.6071 31.7713C25.1714 31.6498 27.4428 31.0641 29.3143 29.1855C31.1857 27.3141 31.7714 25.0427 31.9 22.4784C32.05 19.8355 32.05 11.9213 31.9 9.2784V9.2784ZM28.4857 25.3141C27.9286 26.7141 26.85 27.7927 25.4428 28.357C23.3357 29.1927 18.3357 28.9998 16.0071 28.9998C13.6786 28.9998 8.67141 29.1855 6.57141 28.357C5.17141 27.7998 4.09284 26.7213 3.52856 25.3141C2.69284 23.207 2.8857 18.207 2.8857 15.8784C2.8857 13.5498 2.69999 8.54269 3.52856 6.44269C4.0857 5.04269 5.16427 3.96412 6.57141 3.39983C8.67856 2.56412 13.6786 2.75698 16.0071 2.75698C18.3357 2.75698 23.3428 2.57126 25.4428 3.39983C26.8428 3.95698 27.9214 5.03555 28.4857 6.44269C29.3214 8.54983 29.1286 13.5498 29.1286 15.8784C29.1286 18.207 29.3214 23.2141 28.4857 25.3141Z" fill="url(#paint0_linear_2680_1317)"/>
</g>
<defs>
<linearGradient id="paint0_linear_2680_1317" x1="32.0125" y1="31.8838" x2="-1.94369" y2="29.6753" gradientUnits="userSpaceOnUse">
<stop stop-color="#FC4B2C"/>
<stop offset="1" stop-color="#FFB60E"/>
</linearGradient>
<clipPath id="clip0_2680_1317">
<rect width="32" height="32" fill="white"/>
</clipPath>
</defs>
</svg>
