<svg width="32" height="32" viewBox="0 0 32 32" fill="none" xmlns="http://www.w3.org/2000/svg">
<g clip-path="url(#clip0_2680_1321)">
<path d="M29.7143 -0.114258H2.27857C1.02143 -0.114258 0 0.921457 0 2.19289V29.5786C0 30.85 1.02143 31.8857 2.27857 31.8857H29.7143C30.9714 31.8857 32 30.85 32 29.5786V2.19289C32 0.921457 30.9714 -0.114258 29.7143 -0.114258ZM9.67143 27.3143H4.92857V12.0429H9.67857V27.3143H9.67143ZM7.3 9.95717C5.77857 9.95717 4.55 8.72146 4.55 7.20717C4.55 5.69289 5.77857 4.45717 7.3 4.45717C8.81429 4.45717 10.05 5.69289 10.05 7.20717C10.05 8.7286 8.82143 9.95717 7.3 9.95717ZM27.45 27.3143H22.7071V19.8857C22.7071 18.1143 22.6714 15.8357 20.2429 15.8357C17.7714 15.8357 17.3929 17.7643 17.3929 19.7572V27.3143H12.65V12.0429H17.2V14.1286H17.2643C17.9 12.9286 19.45 11.6643 21.7571 11.6643C26.5571 11.6643 27.45 14.8286 27.45 18.9429V27.3143Z" fill="url(#paint0_linear_2680_1321)"/>
</g>
<defs>
<linearGradient id="paint0_linear_2680_1321" x1="32" y1="31.8857" x2="-1.9373" y2="29.679" gradientUnits="userSpaceOnUse">
<stop stop-color="#FC4B2C"/>
<stop offset="1" stop-color="#FFB60E"/>
</linearGradient>
<clipPath id="clip0_2680_1321">
<rect width="32" height="32" fill="white"/>
</clipPath>
</defs>
</svg>
