<svg width="282" height="59" viewBox="0 0 282 59" fill="none" xmlns="http://www.w3.org/2000/svg">
<path fill-rule="evenodd" clip-rule="evenodd" d="M34.8827 58.1365C50.9367 58.1365 63.951 45.1222 63.951 29.0683C63.951 13.0143 50.9367 0 34.8827 0C29.3475 0 24.1736 1.54714 19.7699 4.23258C23.1744 7.01517 25.3478 11.2475 25.3478 15.9875C25.3478 24.3678 18.5542 31.1614 10.1739 31.1614C8.67194 31.1614 7.22095 30.9432 5.85091 30.5367C6.61571 45.9084 19.3212 58.1365 34.8827 58.1365ZM6.05724 25.2941C7.31585 25.8517 8.70871 26.1614 10.1739 26.1614C15.7928 26.1614 20.3478 21.6064 20.3478 15.9875C20.3478 12.3457 18.4344 9.15085 15.558 7.3534C10.4652 11.8888 6.97843 18.189 6.05724 25.2941Z" fill="url(#paint0_linear_2574_1323)"/>
<circle cx="10.1739" cy="15.9874" r="10.1739" fill="url(#paint1_linear_2574_1323)"/>
<path d="M99.7197 14.858H105.967V49.2156H99.7197V33.9951H84.7967V49.2156H78.5498V14.858H84.7967V28.5911H99.7197V14.858Z" fill="white"/>
<path d="M112.449 36.3749C112.449 34.0943 112.779 32.0946 113.44 30.3759C114.135 28.6572 115.043 27.236 116.167 26.1122C117.291 24.9554 118.58 24.096 120.034 23.5341C121.489 22.9392 122.976 22.6417 124.496 22.6417C128.066 22.6417 130.842 23.749 132.826 25.9635C134.842 28.178 135.85 31.4832 135.85 35.8791C135.85 36.2096 135.833 36.5897 135.8 37.0194C135.8 37.416 135.784 37.7796 135.751 38.1101H118.646C118.811 40.1924 119.539 41.812 120.828 42.9688C122.15 44.0926 124.05 44.6544 126.529 44.6544C127.983 44.6544 129.305 44.5222 130.495 44.2578C131.718 43.9934 132.677 43.7125 133.371 43.415L134.164 48.3232C133.834 48.4885 133.371 48.6703 132.776 48.8686C132.214 49.0339 131.553 49.1826 130.793 49.3148C130.066 49.4801 129.272 49.6123 128.413 49.7114C127.554 49.8106 126.678 49.8602 125.785 49.8602C123.505 49.8602 121.522 49.5296 119.836 48.8686C118.15 48.1745 116.762 47.2325 115.671 46.0426C114.581 44.8197 113.771 43.3985 113.242 41.7789C112.713 40.1263 112.449 38.325 112.449 36.3749ZM129.851 33.6977C129.851 32.8714 129.735 32.0946 129.504 31.3675C129.272 30.6073 128.925 29.9628 128.463 29.4339C128.033 28.8721 127.488 28.4424 126.827 28.1449C126.199 27.8144 125.438 27.6491 124.546 27.6491C123.621 27.6491 122.811 27.8309 122.117 28.1945C121.423 28.525 120.828 28.9712 120.332 29.5331C119.869 30.095 119.506 30.7395 119.241 31.4666C118.977 32.1938 118.795 32.9375 118.696 33.6977H129.851Z" fill="white"/>
<path d="M142.21 24.1291C143.367 23.7986 144.871 23.4846 146.722 23.1871C148.573 22.8896 150.622 22.7409 152.869 22.7409C154.985 22.7409 156.753 23.0384 158.174 23.6333C159.596 24.1952 160.719 25.005 161.546 26.0626C162.405 27.0872 163 28.3432 163.33 29.8306C163.694 31.2849 163.876 32.8879 163.876 34.6397V49.2156H157.877V35.5816C157.877 34.1934 157.778 33.0201 157.579 32.0616C157.414 31.07 157.117 30.2768 156.687 29.6818C156.29 29.0538 155.728 28.6076 155.001 28.3432C154.307 28.0458 153.448 27.897 152.423 27.897C151.663 27.897 150.87 27.9466 150.043 28.0458C149.217 28.1449 148.606 28.2275 148.209 28.2936V49.2156H142.21V24.1291Z" fill="white"/>
<path d="M185.986 28.6903C185.49 28.525 184.796 28.3597 183.903 28.1945C183.044 27.9962 182.036 27.897 180.879 27.897C180.218 27.897 179.508 27.9631 178.747 28.0953C178.02 28.2275 177.508 28.3432 177.21 28.4424V49.2156H171.211V24.5257C172.368 24.096 173.806 23.6994 175.525 23.3358C177.276 22.9392 179.21 22.7409 181.325 22.7409C181.722 22.7409 182.185 22.7739 182.714 22.84C183.242 22.8731 183.771 22.9392 184.3 23.0384C184.829 23.1045 185.341 23.2036 185.837 23.3358C186.333 23.435 186.729 23.5341 187.027 23.6333L185.986 28.6903Z" fill="white"/>
<path d="M197.256 49.2156H191.257V23.2862H197.256V49.2156ZM197.9 15.7008C197.9 16.8246 197.537 17.717 196.81 18.378C196.082 19.039 195.223 19.3696 194.232 19.3696C193.207 19.3696 192.331 19.039 191.604 18.378C190.877 17.717 190.513 16.8246 190.513 15.7008C190.513 14.544 190.877 13.635 191.604 12.974C192.331 12.3129 193.207 11.9824 194.232 11.9824C195.223 11.9824 196.082 12.3129 196.81 12.974C197.537 13.635 197.9 14.544 197.9 15.7008Z" fill="white"/>
<path d="M214.924 14.5109C219.915 14.5109 223.732 15.4198 226.376 17.2377C229.054 19.0556 230.392 21.8981 230.392 25.7652C230.392 27.7813 230.029 29.5166 229.302 30.9709C228.607 32.3921 227.583 33.5655 226.228 34.4909C224.873 35.3833 223.22 36.0444 221.27 36.474C219.32 36.9037 217.089 37.1186 214.577 37.1186H211.453V49.2156H205.207V15.3537C206.661 15.0232 208.264 14.8084 210.016 14.7092C211.8 14.577 213.437 14.5109 214.924 14.5109ZM215.37 19.9149C213.784 19.9149 212.478 19.9645 211.453 20.0637V31.7641H214.478C217.485 31.7641 219.799 31.351 221.419 30.5247C223.038 29.6653 223.848 28.0623 223.848 25.7156C223.848 24.5918 223.633 23.6498 223.203 22.8896C222.774 22.1294 222.179 21.5345 221.419 21.1048C220.658 20.6751 219.749 20.3777 218.692 20.2124C217.667 20.0141 216.56 19.9149 215.37 19.9149Z" fill="white"/>
<path d="M244.098 45.0015C245.949 45.0015 247.354 44.9023 248.312 44.704V38.0605C247.982 37.9614 247.502 37.8622 246.874 37.7631C246.246 37.6639 245.552 37.6143 244.792 37.6143C244.131 37.6143 243.453 37.6639 242.759 37.7631C242.098 37.8622 241.487 38.044 240.925 38.3084C240.396 38.5729 239.966 38.953 239.636 39.4487C239.305 39.9115 239.14 40.5064 239.14 41.2335C239.14 42.6548 239.586 43.6464 240.479 44.2082C241.371 44.7371 242.578 45.0015 244.098 45.0015ZM243.602 22.6417C245.585 22.6417 247.254 22.8896 248.61 23.3854C249.965 23.8812 251.039 24.5753 251.832 25.4677C252.658 26.3601 253.237 27.4508 253.567 28.7398C253.931 29.9958 254.113 31.384 254.113 32.9044V48.6207C253.187 48.819 251.783 49.0504 249.899 49.3148C248.048 49.6123 245.949 49.761 243.602 49.761C242.049 49.761 240.627 49.6123 239.338 49.3148C238.049 49.0173 236.942 48.5381 236.017 47.877C235.124 47.216 234.414 46.3566 233.885 45.299C233.389 44.2413 233.141 42.9357 233.141 41.3823C233.141 39.8949 233.422 38.639 233.984 37.6143C234.579 36.5897 235.372 35.7634 236.364 35.1354C237.355 34.4744 238.496 34.0117 239.785 33.7472C241.107 33.4498 242.478 33.301 243.9 33.301C244.561 33.301 245.255 33.3506 245.982 33.4498C246.709 33.5159 247.486 33.6481 248.312 33.8464V32.8548C248.312 32.1607 248.229 31.4997 248.064 30.8717C247.899 30.2437 247.601 29.6984 247.172 29.2356C246.775 28.7398 246.23 28.3597 245.536 28.0953C244.875 27.8309 244.032 27.6987 243.007 27.6987C241.619 27.6987 240.347 27.7979 239.19 27.9962C238.033 28.1945 237.091 28.4259 236.364 28.6903L235.62 23.8316C236.38 23.5672 237.488 23.3028 238.942 23.0384C240.396 22.7739 241.95 22.6417 243.602 22.6417Z" fill="white"/>
<path d="M282 23.2862C279.322 33.1358 276.216 42.0599 272.679 50.0585C272.018 51.5458 271.34 52.8183 270.646 53.876C269.952 54.9337 269.175 55.8095 268.316 56.5036C267.457 57.1977 266.498 57.6935 265.441 57.991C264.383 58.3215 263.16 58.4868 261.772 58.4868C260.846 58.4868 259.921 58.3876 258.995 58.1893C258.103 57.991 257.425 57.7761 256.963 57.5448L258.053 52.7357C259.243 53.1984 260.417 53.4298 261.573 53.4298C263.127 53.4298 264.333 53.0497 265.193 52.2895C266.085 51.5623 266.862 50.422 267.523 48.8686C265.639 45.2329 263.821 41.2666 262.069 36.9698C260.351 32.673 258.814 28.1119 257.458 23.2862H263.854C264.185 24.6744 264.581 26.1783 265.044 27.7979C265.54 29.4174 266.069 31.07 266.63 32.7557C267.192 34.4083 267.787 36.0609 268.415 37.7135C269.043 39.3661 269.671 40.903 270.299 42.3243C271.357 39.3826 272.348 36.2592 273.274 32.954C274.199 29.6157 275.042 26.3931 275.802 23.2862H282Z" fill="white"/>
<defs>
<linearGradient id="paint0_linear_2574_1323" x1="63.951" y1="58.1365" x2="2.33316" y2="54.1323" gradientUnits="userSpaceOnUse">
<stop stop-color="#FC4B2C"/>
<stop offset="1" stop-color="#FFB60E"/>
</linearGradient>
<linearGradient id="paint1_linear_2574_1323" x1="20.3478" y1="26.1613" x2="-1.23187" y2="24.758" gradientUnits="userSpaceOnUse">
<stop stop-color="#F3834C"/>
<stop offset="1" stop-color="#FBA752"/>
</linearGradient>
</defs>
</svg>
